<svg xmlns="http://www.w3.org/2000/svg" width="176" height="44" viewBox="0 0 176 44">
    <g fill="none">
        <path fill="#18F565" d="M27.152 43.937c-6.56 0-15.167-.058-19.026.044V8.1H25.63c3.69 0 6.599.937 8.83 2.808 2.208 1.78 3.463 4.486 3.393 7.321 0 3.482-1.3 6.027-4.155 7.85.34-.218 2.114 1.27 2.424 1.527.75.67 1.376 1.468 1.847 2.357 1.156 2.366 1.274 5.106.326 7.563-.949 2.457-2.878 4.407-5.324 5.382-1.856.713-3.831 1.062-5.818 1.028z"/>
        <path fill="#0346B1" d="M0 37.47V0h24.592c1.063-.004 2.084.416 2.837 1.166.754.751 1.177 1.77 1.177 2.834v.102c0 2.209-1.79 4-4 4H8.121v6.613h16.485c2.21 0 4 1.791 4 4 0 2.21-1.79 4-4 4H8.121v6.652h16.485c2.21 0 4 1.791 4 4v.088c0 2.209-1.79 4-4 4L0 37.469zM70.065 32.892c-1.895 1.532-4.61 2.691-8.688 2.691-7.307 0-10.09-4.655-10.09-9.648 0-4.994 2.958-9.644 10.09-9.644 6.919 0 10.439 4.407 9.73 11.787H57.325c0 1.556.92 3.219 4.053 3.219 2.865 0 4.708-.868 5.818-1.663l2.87 3.258zm-4.654-8.567c0-1.59-.868-3.753-4.034-3.753s-4.034 2.163-4.034 3.753h8.068zM74.05 35.05V9.697h11.982c7.96 0 9.624 3.452 9.624 6.788-.02 2.539-1.838 4.706-4.335 5.168 3.346.708 5.237 2.798 5.237 5.819 0 3.592-2.211 7.607-10.245 7.607l-12.262-.03zm12.122-15.414c2.759 0 3.54-1.095 3.54-2.511 0-1.416-.781-2.517-3.54-2.517h-6.23v5.028h6.23zm0 10.492c3.394 0 4.364-.97 4.364-2.865 0-1.896-.97-2.865-4.364-2.865h-6.23v5.73h6.23zM102.439 8.398c1.681 0 3.045 1.363 3.045 3.044 0 1.682-1.364 3.045-3.045 3.045-1.682 0-3.045-1.363-3.045-3.045 0-1.681 1.363-3.044 3.045-3.044zm-2.91 8.426h5.819V35.05H99.53V16.824zM114.827 35.05h-5.819V16.824h5.819v1.94c1.061-1.63 2.618-2.463 4.848-2.463 6.032 0 8.369 3.505 8.369 9.309v9.44h-5.819V25.6c0-3.006-.901-4.848-3.718-4.848s-3.714 1.842-3.714 4.848l.034 9.45zM151.99 16.824V35.05h-5.818v-2.425c-1.081 1.644-3.06 2.939-5.983 2.939-5.401.019-9.28-3.564-9.28-9.63 0-6.065 3.879-9.643 9.304-9.643 2.939 0 4.888 1.309 5.983 2.938v-2.424l5.794.02zm-10.545 14.298c3.06 0 4.742-2.196 4.742-5.187 0-2.992-1.702-5.183-4.742-5.183s-4.718 2.196-4.718 5.183c0 2.986 1.654 5.187 4.718 5.187zM175.918 16.824V35.05h-5.819v-2.425c-1.076 1.644-3.059 2.939-5.978 2.939-5.435 0-9.309-3.593-9.309-9.649 0-6.056 3.879-9.643 9.31-9.643 2.937 0 4.882 1.309 5.977 2.938v-2.425l5.819.04zm-10.546 14.298c3.064 0 4.742-2.196 4.742-5.187 0-2.992-1.678-5.183-4.742-5.183s-4.742 2.196-4.742 5.183c0 2.986 1.683 5.187 4.742 5.187z"/>
    </g>
</svg>
