<svg xmlns="http://www.w3.org/2000/svg" width="176" height="44" viewBox="0 0 176 44">
    <g fill="none" fill-rule="nonzero">
        <path fill="#18F565" d="M27.152 43.937c-6.56 0-15.167-.058-19.026.044V8.1H25.63c3.69 0 6.599.937 8.83 2.808a9.115 9.115 0 0 1 3.393 7.321c0 3.482-1.3 6.027-4.155 7.85.34-.218 2.114 1.27 2.424 1.527a8.48 8.48 0 0 1 1.847 2.357 9.464 9.464 0 0 1-4.998 12.945 15.486 15.486 0 0 1-5.818 1.028z"/>
        <path fill="#0346B1" d="M0 37.47V0h24.592a4 4 0 0 1 4.014 4v.102a4 4 0 0 1-4 4H8.121v6.613h16.485a4 4 0 1 1 0 8H8.121v6.652h16.485a4 4 0 0 1 4 4v.088a4 4 0 0 1-4 4L0 37.469zM70.303 19.559v5.096h-12.19v5.255h13.092v5.096H52.242V9.697h18.803v5.115H58.114v4.747zM74.395 35.006V9.697h11.942c7.937 0 9.595 3.438 9.595 6.754a5.28 5.28 0 0 1-4.296 5.168c3.331.708 5.217 2.788 5.217 5.819 0 3.583-2.2 7.583-10.21 7.583l-12.248-.015zm12.083-15.36c2.749 0 3.524-1.096 3.524-2.507 0-1.41-.775-2.506-3.524-2.506h-6.211v5.013h6.21zm0 10.458c3.394 0 4.363-.97 4.363-2.856s-.97-2.86-4.363-2.86h-6.211v5.716h6.21zM102.686 8.441a3.035 3.035 0 1 1 0 6.07 3.035 3.035 0 0 1 0-6.07zm-2.909 8.398h5.79v18.167h-5.775l-.015-18.167zM115.035 35.006h-5.789V16.84h5.79v1.94c1.056-1.625 2.608-2.454 4.848-2.454 6.017 0 8.344 3.49 8.344 9.28v9.401h-5.79V25.59c0-3-.896-4.848-3.703-4.848-2.808 0-3.7 1.833-3.7 4.848v9.416zM152.073 16.839v18.167h-5.785v-2.424c-1.076 1.643-3.054 2.909-5.963 2.909-5.416 0-9.275-3.578-9.275-9.61 0-6.031 3.878-9.614 9.275-9.614 2.909 0 4.848 1.304 5.963 2.909v-2.424l5.785.087zm-10.497 14.254c3.05 0 4.727-2.186 4.727-5.168s-1.692-5.169-4.727-5.169-4.728 2.187-4.728 5.169c0 2.982 1.659 5.168 4.728 5.168zM175.918 16.839v18.167h-5.785v-2.424c-1.076 1.643-3.05 2.909-5.963 2.909-5.411 0-9.275-3.578-9.275-9.61 0-6.031 3.878-9.614 9.275-9.614 2.909 0 4.848 1.304 5.963 2.909v-2.424l5.785.087zm-10.512 14.254c3.055 0 4.727-2.186 4.727-5.168s-1.672-5.169-4.727-5.169c-3.054 0-4.727 2.187-4.727 5.169 0 2.982 1.677 5.168 4.727 5.168z"/>
    </g>
</svg>
